<svg width="45" height="45" viewBox="0 0 45 45" fill="none" xmlns="http://www.w3.org/2000/svg">
<path d="M39.6875 20.375V19.3125C39.6875 9.92319 32.0768 2.3125 22.6875 2.3125C13.2982 2.3125 5.6875 9.92319 5.6875 19.3125V20.375" stroke="white" stroke-width="4" stroke-linecap="round" stroke-linejoin="round"/>
<path d="M5.6875 33.125C5.6875 33.125 3.5625 38.4375 7.8125 40.5625C12.0625 42.6875 33.3125 42.6875 37.5625 40.5625C41.8125 38.4375 39.6875 33.125 39.6875 33.125" stroke="white" stroke-width="4" stroke-linecap="round" stroke-linejoin="round"/>
<path d="M35.4375 19.3125H9.9375C5.82988 19.3125 2.5 22.6424 2.5 26.75C2.5 30.8576 5.82988 34.1875 9.9375 34.1875H35.4375C39.5451 34.1875 42.875 30.8576 42.875 26.75C42.875 22.6424 39.5451 19.3125 35.4375 19.3125Z" stroke="white" stroke-width="4" stroke-linecap="round" stroke-linejoin="round"/>
<path d="M8.875 27.8125L10.5665 26.9667C11.3711 26.5645 12.2518 26.3372 13.1507 26.2998C14.0495 26.2625 14.946 26.4159 15.7812 26.75L16.2317 26.9306C16.9254 27.208 17.67 27.3353 18.4165 27.3042C19.1629 27.2731 19.8943 27.0842 20.5625 26.75C21.2307 26.4158 21.9621 26.2269 22.7085 26.1958C23.455 26.1646 24.1996 26.292 24.8932 26.5694L25.9132 26.9774C26.5696 27.2401 27.2741 27.3608 27.9805 27.3315C28.6869 27.3022 29.379 27.1236 30.0113 26.8074C30.7064 26.4599 31.4729 26.2789 32.25 26.2789C33.0271 26.2789 33.7936 26.4599 34.4887 26.8074L36.5 27.8125" stroke="white" stroke-width="4" stroke-linecap="round" stroke-linejoin="round"/>
<path d="M15.25 15.6469C16.717 15.6469 17.9063 14.4577 17.9063 12.9907C17.9063 11.5237 16.717 10.3344 15.25 10.3344C13.783 10.3344 12.5938 11.5237 12.5938 12.9907C12.5938 14.4577 13.783 15.6469 15.25 15.6469Z" fill="white"/>
<path d="M22.4219 12.725C23.8889 12.725 25.0781 11.5358 25.0781 10.0688C25.0781 8.60178 23.8889 7.41254 22.4219 7.41254C20.9549 7.41254 19.7656 8.60178 19.7656 10.0688C19.7656 11.5358 20.9549 12.725 22.4219 12.725Z" fill="white"/>
</svg>
