<svg width="47" height="47" viewBox="0 0 47 47" fill="none" xmlns="http://www.w3.org/2000/svg">
<path d="M33.6475 33.9911C38.1557 29.484 35.1509 14.4581 28.3881 7.69637C25.3834 4.69055 16.7431 -1.69613 7.35274 7.69637C-2.03976 17.0867 4.34693 25.727 7.35274 28.7317C14.1145 35.4946 29.1404 38.4993 33.6475 33.9911V33.9911Z" stroke="white" stroke-width="4" stroke-linecap="round" stroke-linejoin="round"/>
<path d="M41.75 41.5625L34.3125 34.125" stroke="white" stroke-width="4"/>
<path d="M41.1394 38.6972C40.1021 39.7345 40.1021 41.4164 41.1394 42.4537C42.1767 43.491 43.8586 43.491 44.8959 42.4537C45.9332 41.4164 45.9332 39.7345 44.8959 38.6972C43.8586 37.6599 42.1767 37.6599 41.1394 38.6972Z" fill="white"/>
<path d="M38.8848 40.9518C37.8474 41.9891 37.8474 43.6709 38.8848 44.7083C39.9221 45.7456 41.6039 45.7456 42.6413 44.7083C43.6786 43.6709 43.6786 41.9891 42.6413 40.9518C41.6039 39.9144 39.9221 39.9144 38.8848 40.9518Z" fill="white"/>
<path d="M16.25 19.25C17.4236 19.25 18.375 18.2986 18.375 17.125C18.375 15.9514 17.4236 15 16.25 15C15.0764 15 14.125 15.9514 14.125 17.125C14.125 18.2986 15.0764 19.25 16.25 19.25Z" fill="white"/>
<path d="M10.9375 22.4375C12.1111 22.4375 13.0625 21.4861 13.0625 20.3125C13.0625 19.1389 12.1111 18.1875 10.9375 18.1875C9.7639 18.1875 8.8125 19.1389 8.8125 20.3125C8.8125 21.4861 9.7639 22.4375 10.9375 22.4375Z" fill="white"/>
<path d="M16.25 25.625C17.4236 25.625 18.375 24.6736 18.375 23.5C18.375 22.3264 17.4236 21.375 16.25 21.375C15.0764 21.375 14.125 22.3264 14.125 23.5C14.125 24.6736 15.0764 25.625 16.25 25.625Z" fill="white"/>
</svg>
