<svg width="46" height="46" viewBox="0 0 46 46" fill="none" xmlns="http://www.w3.org/2000/svg">
<path d="M33.6565 10.1406C33.6565 10.6134 33.5163 11.0757 33.2536 11.4688C32.9909 11.8619 32.6175 12.1683 32.1807 12.3493C31.7439 12.5302 31.2632 12.5776 30.7995 12.4853C30.3357 12.3931 29.9097 12.1654 29.5754 11.8311C29.2411 11.4967 29.0134 11.0708 28.9212 10.607C28.8289 10.1433 28.8763 9.6626 29.0572 9.22577C29.2381 8.78894 29.5445 8.41558 29.9377 8.15289C30.3308 7.89021 30.793 7.75 31.2658 7.75C31.8999 7.75 32.5079 8.00187 32.9563 8.4502C33.4046 8.89853 33.6565 9.50659 33.6565 10.1406ZM41.1686 26.774C37.099 31.9439 30.5664 34.7647 21.7412 35.1661L17.5943 45.0242C17.4727 45.3133 17.2685 45.5601 17.0073 45.7337C16.746 45.9072 16.4394 45.9999 16.1258 46C16.0939 46 16.0619 45.999 16.0298 45.9972C15.7004 45.9775 15.3852 45.8559 15.1278 45.6494C14.8704 45.4428 14.6835 45.1615 14.5928 44.8442L11.6484 34.5386L1.34279 31.5873C1.0256 31.4965 0.744419 31.3095 0.53804 31.0521C0.33166 30.7947 0.210257 30.4795 0.190581 30.1502C0.170906 29.8209 0.253928 29.4935 0.428193 29.2134C0.602457 28.9332 0.859373 28.714 1.16349 28.5861L11.017 24.4419C11.3378 17.4322 13.1863 11.871 16.5247 7.83985L16.5298 7.83387C17.3883 6.79585 18.3548 5.85208 19.4129 5.01851C27.6042 -1.42781 39.2103 0.447234 42.5721 1.17578C43.1698 1.30604 43.7174 1.6052 44.15 2.03769C44.5825 2.47017 44.8818 3.01779 45.0121 3.61541C45.7405 6.97763 47.6159 18.5839 41.1686 26.7742V26.774ZM32.9648 29.3646C31.07 28.6586 29.4019 27.4522 28.1381 25.8737C26.8743 24.2953 26.0619 22.4038 25.7873 20.4004C23.7834 20.1258 21.8915 19.313 20.3128 18.0486C18.7341 16.7842 17.5278 15.1155 16.8221 13.22C15.1757 16.517 14.2858 20.6393 14.1679 25.5542C14.1605 25.8614 14.0645 26.1598 13.8914 26.4137C13.7183 26.6676 13.4755 26.866 13.1923 26.9852L6.57228 29.7693L13.3764 31.7178C13.6366 31.7923 13.8736 31.9319 14.0649 32.1234C14.2563 32.3148 14.3957 32.5519 14.4701 32.8121L16.4129 39.6121L19.1986 32.9904C19.3177 32.7072 19.5162 32.4645 19.7701 32.2915C20.0241 32.1185 20.3226 32.0225 20.6298 32.0153C25.5449 31.8985 29.6673 31.0098 32.9646 29.3646H32.9648ZM41.8969 4.29017C38.8796 3.63693 28.481 1.93799 21.3842 7.52349C20.6369 8.11247 19.9447 8.76829 19.3163 9.48281C19.3548 11.5708 20.2106 13.5604 21.6999 15.0243C23.1891 16.4883 25.1931 17.3098 27.2815 17.3125C27.7042 17.3125 28.1095 17.4804 28.4084 17.7793C28.7073 18.0782 28.8752 18.4836 28.8752 18.9063C28.8779 20.9942 29.6991 22.9978 31.1625 24.487C32.626 25.9763 34.615 26.8323 36.7025 26.8714C37.4179 26.2428 38.0744 25.5502 38.664 24.8023C44.2497 17.7066 42.5508 7.30813 41.8969 4.29017Z" fill="white"/>
</svg>
