<svg width="36" height="41" viewBox="0 0 36 41" fill="none" xmlns="http://www.w3.org/2000/svg">
<path d="M9.12495 17.9551C9.63049 17.9551 10.1153 17.7543 10.4728 17.3968C10.8303 17.0393 11.0311 16.5545 11.0311 16.049C11.0311 15.5434 10.8303 15.0586 10.4728 14.7011C10.1153 14.3437 9.63049 14.1429 9.12495 14.1429C8.61942 14.1429 8.13459 14.3437 7.77712 14.7011C7.41965 15.0586 7.21883 15.5434 7.21883 16.049C7.21883 16.5545 7.41965 17.0393 7.77712 17.3968C8.13459 17.7543 8.61942 17.9551 9.12495 17.9551ZM18.6186 21.1503C18.6186 21.6558 18.4178 22.1406 18.0603 22.4981C17.7028 22.8556 17.218 23.0564 16.7125 23.0564C16.2069 23.0564 15.7221 22.8556 15.3646 22.4981C15.0072 22.1406 14.8064 21.6558 14.8064 21.1503C14.8064 20.6447 15.0072 20.1599 15.3646 19.8024C15.7221 19.445 16.2069 19.2441 16.7125 19.2441C17.218 19.2441 17.7028 19.445 18.0603 19.8024C18.4178 20.1599 18.6186 20.6447 18.6186 21.1503ZM9.13515 29.4454C9.38664 29.4454 9.63566 29.3959 9.86801 29.2996C10.1004 29.2034 10.3115 29.0623 10.4893 28.8845C10.6671 28.7067 10.8082 28.4956 10.9044 28.2632C11.0007 28.0309 11.0502 27.7818 11.0502 27.5304C11.0502 27.2789 11.0007 27.0298 10.9044 26.7975C10.8082 26.5651 10.6671 26.354 10.4893 26.1762C10.3115 25.9984 10.1004 25.8573 9.86801 25.7611C9.63566 25.6648 9.38664 25.6153 9.13515 25.6153C8.62725 25.6153 8.14015 25.8171 7.78101 26.1762C7.42187 26.5353 7.2201 27.0224 7.2201 27.5304C7.2201 28.0383 7.42187 28.5254 7.78101 28.8845C8.14015 29.2436 8.62725 29.4454 9.13515 29.4454ZM0.199951 5.0878C0.199951 2.29555 2.4822 -0.068299 5.37645 0.110201C16.7163 0.808901 26.6613 4.6237 34.4516 12.0621C36.6624 14.1709 36.2264 17.616 33.9339 19.3755C30.3665 22.1294 26.7752 24.852 23.1602 27.5431V31.9801C23.1602 33.8085 21.7449 35.8051 19.3352 35.8051C18.8736 35.8051 18.4478 35.7286 18.0653 35.6011V35.8128C18.0653 37.6309 16.6475 39.6148 14.2326 39.6148C12.3099 39.6148 11.0426 38.35 10.5963 36.9373C9.1989 37.9828 7.67145 39.1201 6.3072 40.135C3.7827 42.0144 0.199951 40.2115 0.199951 37.075V5.0878ZM18.0627 31.9801C18.0627 32.6406 18.56 33.2551 19.3352 33.2551C20.1129 33.2551 20.6102 32.6355 20.6102 31.9801V26.8954C20.6103 26.6944 20.658 26.4964 20.7493 26.3173C20.8406 26.1383 20.9729 25.9834 21.1355 25.8652C23.1245 24.4219 26.5109 21.849 29.5097 19.5565C22.6425 13.0209 13.0163 9.1423 2.74995 9.0607V37.0725C2.75065 37.3084 2.8168 37.5395 2.94103 37.74C3.06526 37.9406 3.2427 38.1028 3.45361 38.2085C3.66451 38.3142 3.90062 38.3593 4.13565 38.3388C4.37068 38.3184 4.59541 38.2331 4.78485 38.0925C6.78915 36.5982 9.153 34.8387 10.9278 33.5076C11.1172 33.3655 11.3425 33.279 11.5783 33.2577C11.8141 33.2364 12.0512 33.2813 12.263 33.3872C12.4748 33.493 12.6529 33.6558 12.7774 33.8572C12.9019 34.0587 12.9678 34.2908 12.9678 34.5276V35.8128C12.9678 36.4426 13.4523 37.0674 14.2326 37.0674C14.3997 37.0714 14.5659 37.042 14.7214 36.9807C14.8768 36.9194 15.0185 36.8276 15.1378 36.7106C15.2572 36.5936 15.3518 36.4539 15.4162 36.2997C15.4806 36.1454 15.5134 35.9799 15.5127 35.8128V31.9801C15.5127 31.642 15.647 31.3177 15.8861 31.0785C16.1252 30.8394 16.4496 30.7051 16.7877 30.7051C17.1259 30.7051 17.4502 30.8394 17.6893 31.0785C17.9284 31.3177 18.0627 31.642 18.0627 31.9801ZM32.3784 17.3559C33.5642 16.4455 33.6534 14.8237 32.6895 13.9032C25.4042 6.9493 16.0635 3.32065 5.2209 2.65255C3.89745 2.57095 2.74995 3.65725 2.74995 5.0878V6.5107C13.7838 6.59485 24.1751 10.8126 31.5573 17.9857L32.3784 17.3559Z" fill="white"/>
</svg>
