<svg width="37" height="36" viewBox="0 0 37 36" fill="none" xmlns="http://www.w3.org/2000/svg">
<path d="M2.37505 12.8054V12.7812C2.37502 10.3922 3.08256 8.05664 4.40841 6.06929C5.73427 4.08193 7.61903 2.53178 9.8249 1.61441C12.0308 0.697042 14.4589 0.453556 16.8031 0.914671C19.1472 1.37579 21.3022 2.52084 22.9962 4.20538C24.3291 3.54751 25.8179 3.27091 27.2982 3.40613C28.7784 3.54136 30.1924 4.08315 31.384 4.97165C32.5756 5.86015 33.4984 7.06076 34.0505 8.44085C34.6025 9.82093 34.7623 11.3268 34.5122 12.792C34.8799 12.8261 35.2367 12.9356 35.5602 13.1138C35.8837 13.292 36.167 13.5349 36.3925 13.8274C36.6179 14.1199 36.7807 14.4558 36.8705 14.814C36.9604 15.1722 36.9755 15.5451 36.9148 15.9095C35.7001 23.2168 32.6954 27.842 27.9063 29.7877V31.5937C27.9063 32.6629 27.4816 33.6883 26.7256 34.4443C25.9696 35.2003 24.9442 35.625 23.875 35.625H13.1251C12.0559 35.625 11.0305 35.2003 10.2745 34.4443C9.51852 33.6883 9.0938 32.6629 9.0938 31.5937V29.7877C4.30468 27.842 1.30005 23.2168 0.0853038 15.9095C0.026678 15.5548 0.039787 15.192 0.123855 14.8426C0.207923 14.4931 0.361241 14.164 0.574737 13.8749C0.788232 13.5857 1.05757 13.3423 1.3668 13.159C1.67603 12.9758 2.01888 12.8565 2.37505 12.8081V12.8054ZM5.06255 12.7812H7.75005C7.75005 10.9993 8.45792 9.29033 9.71793 8.03032C10.9779 6.77031 12.6869 6.06244 14.4688 6.06244C16.2507 6.06244 17.9597 6.77031 19.2197 8.03032C20.4797 9.29033 21.1875 10.9993 21.1875 12.7812H23.875C23.875 10.2865 22.884 7.89399 21.12 6.12997C19.356 4.36595 16.9635 3.37494 14.4688 3.37494C11.9741 3.37494 9.58159 4.36595 7.81758 6.12997C6.05357 7.89399 5.06255 10.2865 5.06255 12.7812ZM10.4376 12.7812H18.5001C18.5001 11.712 18.0753 10.6867 17.3193 9.93067C16.5633 9.17467 15.538 8.74995 14.4688 8.74995C13.3996 8.74995 12.3743 9.17467 11.6183 9.93067C10.8623 10.6867 10.4376 11.712 10.4376 12.7812ZM28.8899 12.7812H31.7682C31.9711 11.987 31.99 11.1569 31.8235 10.3543C31.657 9.5516 31.3095 8.79755 30.8074 8.14956C30.3054 7.50156 29.662 6.97672 28.9264 6.61503C28.1908 6.25334 27.3823 6.06434 26.5625 6.06244C25.9175 6.06244 25.3048 6.17532 24.735 6.38226C25.2107 7.14551 25.6031 7.96788 25.9041 8.83057C26.416 8.70361 26.9539 8.72976 27.451 8.90575C27.9482 9.08175 28.3827 9.39985 28.7007 9.82059C29.0187 10.2413 29.2061 10.7462 29.2398 11.2725C29.2734 11.7988 29.1518 12.3234 28.8899 12.7812ZM25.2188 30.25H11.7813V31.5937C11.7813 31.9501 11.9229 32.2919 12.1749 32.5439C12.4269 32.7959 12.7687 32.9375 13.1251 32.9375H23.875C24.2314 32.9375 24.5732 32.7959 24.8252 32.5439C25.0772 32.2919 25.2188 31.9501 25.2188 31.5937V30.25ZM10.8353 27.5625H26.1648C30.4272 26.1919 33.1254 22.3165 34.2649 15.4687H2.73518C3.87468 22.3165 6.57293 26.1919 10.8353 27.5625Z" fill="white"/>
</svg>
